<svg width="24" height="25" viewBox="0 0 24 25" fill="none" xmlns="http://www.w3.org/2000/svg">
<g id="virus_24(solid)">
<path id="Vector" fill-rule="evenodd" clip-rule="evenodd" d="M11.5 4.5C12.0523 4.5 12.5 4.9477 12.5 5.5C12.5001 5.65526 12.464 5.80841 12.3946 5.94728C12.3252 6.08615 12.2244 6.20692 12.1001 6.3L12.0996 7.0356C12.578 7.0928 13.0356 7.2175 13.4627 7.3999L13.8298 6.7625C13.769 6.61987 13.7422 6.46503 13.7516 6.31025C13.761 6.15547 13.8063 6.00502 13.884 5.8708C14.1601 5.3925 14.7717 5.2287 15.25 5.5048C15.7283 5.781 15.8922 6.3925 15.616 6.8708C15.5385 7.00532 15.4307 7.11992 15.3011 7.20548C15.1716 7.29104 15.0239 7.34522 14.8697 7.3637L14.5022 8.0013C14.8794 8.2849 15.2151 8.6206 15.4987 8.9978L16.1364 8.6291C16.155 8.47517 16.2093 8.3277 16.2948 8.19837C16.3804 8.06904 16.4948 7.9614 16.6292 7.884C17.1075 7.6078 17.719 7.7717 17.9952 8.25C18.2713 8.7283 18.1075 9.3399 17.6292 9.616C17.4948 9.69375 17.3441 9.73908 17.1891 9.74841C17.0342 9.75773 16.8791 9.73078 16.7364 9.6697L16.1001 10.0373C16.2824 10.4641 16.4071 10.9213 16.4643 11.3993L17.2007 11.3989C17.2938 11.2749 17.4145 11.1743 17.5533 11.1051C17.692 11.0358 17.8449 10.9999 18 11C18.5523 11 19 11.4477 19 12C19 12.5523 18.5523 13 18 13C17.8447 13.0001 17.6916 12.964 17.5527 12.8946C17.4138 12.8252 17.2931 12.7244 17.2 12.6001L16.4644 12.5996C16.4085 13.069 16.2858 13.528 16.1001 13.9627L16.7375 14.3298C16.8801 14.269 17.035 14.2422 17.1897 14.2516C17.3445 14.261 17.495 14.3063 17.6292 14.384C18.1075 14.6601 18.2713 15.2717 17.9952 15.75C17.719 16.2283 17.1075 16.3922 16.6292 16.116C16.4947 16.0385 16.3801 15.9307 16.2945 15.8011C16.209 15.6716 16.1548 15.5239 16.1363 15.3697L15.4987 15.0022C15.2149 15.3795 14.8795 15.7149 14.5022 15.9987L14.8709 16.6364C15.0248 16.655 15.1723 16.7093 15.3016 16.7948C15.431 16.8804 15.5386 16.9948 15.616 17.1292C15.8922 17.6075 15.7283 18.219 15.25 18.4952C14.7717 18.7713 14.1601 18.6075 13.884 18.1292C13.8063 17.9948 13.7609 17.8441 13.7516 17.6891C13.7423 17.5342 13.7692 17.3791 13.8303 17.2364L13.4627 16.6001C13.0283 16.7856 12.5697 16.9083 12.1007 16.9643L12.1011 17.7007C12.2251 17.7938 12.3257 17.9145 12.3949 18.0533C12.4642 18.192 12.5001 18.3449 12.5 18.5C12.5 19.0523 12.0523 19.5 11.5 19.5C10.9477 19.5 10.5 19.0523 10.5 18.5C10.5 18.1729 10.657 17.8825 10.8999 17.7L10.9004 16.9644C10.431 16.9085 9.97201 16.7858 9.5373 16.6001L9.1702 17.2375C9.23102 17.3801 9.25779 17.535 9.24838 17.6897C9.23898 17.8445 9.19365 17.995 9.116 18.1292C8.8399 18.6075 8.2283 18.7713 7.75 18.4952C7.2717 18.219 7.1078 17.6075 7.384 17.1292C7.46151 16.9947 7.56933 16.8801 7.69888 16.7945C7.82843 16.709 7.97615 16.6548 8.1303 16.6363L8.4978 15.9987C8.12051 15.7149 7.78505 15.3795 7.5013 15.0022L6.8636 15.3709C6.84495 15.5248 6.79071 15.6723 6.70517 15.8016C6.61964 15.931 6.50515 16.0386 6.3708 16.116C5.8925 16.3922 5.281 16.2283 5.0048 15.75C4.7287 15.2717 4.8925 14.6601 5.3708 14.384C5.50519 14.3063 5.65587 14.2609 5.81085 14.2516C5.96583 14.2423 6.12086 14.2692 6.2636 14.3303L6.8999 13.9627C6.71435 13.5283 6.59172 13.0697 6.5357 12.6007L5.7993 12.6011C5.70619 12.7251 5.58548 12.8257 5.44675 12.8949C5.30801 12.9642 5.15505 13.0001 5 13C4.4477 13 4 12.5523 4 12C4 11.4477 4.4477 11 5 11C5.3271 11 5.6175 11.157 5.8 11.3999L6.5356 11.4004C6.59154 10.931 6.71422 10.472 6.8999 10.0373L6.2625 9.6702C6.11987 9.73102 5.96503 9.75779 5.81025 9.74838C5.65547 9.73898 5.50502 9.69365 5.3708 9.616C4.8925 9.3399 4.7287 8.7283 5.0048 8.25C5.281 7.7717 5.8925 7.6078 6.3708 7.884C6.50532 7.96151 6.61992 8.06933 6.70548 8.19888C6.79104 8.32843 6.84522 8.47615 6.8637 8.6303L7.5013 8.9978C7.78505 8.62051 8.12051 8.28505 8.4978 8.0013L8.1291 7.3636C7.97517 7.34495 7.8277 7.29071 7.69837 7.20517C7.56904 7.11964 7.4614 7.00515 7.384 6.8708C7.1078 6.3925 7.2717 5.781 7.75 5.5048C8.2283 5.2287 8.8399 5.3925 9.116 5.8708C9.19375 6.00519 9.23908 6.15587 9.24841 6.31085C9.25773 6.46583 9.23078 6.62086 9.1697 6.7636L9.5373 7.3999C9.97167 7.21435 10.4303 7.09172 10.8993 7.0357L10.8989 6.2993C10.7749 6.20619 10.6743 6.08548 10.6051 5.94675C10.5358 5.80801 10.4999 5.65505 10.5 5.5C10.5 4.9477 10.9477 4.5 11.5 4.5Z" fill="#2A5885"/>
</g>
</svg>
